<svg width="132" height="88" viewBox="0 0 132 88" fill="none" xmlns="http://www.w3.org/2000/svg">
<path d="M130.124 7.93419C130.763 8.16483 131.468 7.83381 131.699 7.19485C131.929 6.55589 131.598 5.85094 130.959 5.62031L130.124 7.93419ZM5.18527 86.4014C5.45817 87.0235 6.1837 87.3066 6.80578 87.0337L16.9432 82.5864C17.5653 82.3135 17.8483 81.588 17.5754 80.9659C17.3025 80.3439 16.577 80.0608 15.9549 80.3337L6.94389 84.2868L2.99082 75.2757C2.71792 74.6536 1.99239 74.3706 1.37031 74.6435C0.748223 74.9164 0.465157 75.6419 0.73806 76.264L5.18527 86.4014ZM130.542 6.77725L130.959 5.62031C95.7993 -7.07061 67.7985 3.88599 46.9031 22.5154C26.0652 41.0935 12.2406 67.3266 5.16577 85.4602L6.31165 85.9073L7.45752 86.3543C14.4593 68.408 28.1047 42.571 48.5402 24.3516C68.9182 6.18344 95.994 -4.38497 130.124 7.93419L130.542 6.77725Z" fill="white"/>
</svg>
